<svg width="100" height="41" viewBox="0 0 100 41" fill="none" xmlns="http://www.w3.org/2000/svg">
<path d="M79.4048 21.6104C79.1761 15.8698 74.352 11.2505 68.4304 11.2505C62.3716 11.2505 57.4331 16.0941 57.4331 22.0364C57.4331 27.9788 62.3716 32.8224 68.4304 32.8224C70.7624 32.8224 72.9345 32.1048 74.7178 30.8715V32.6206H79.4505L79.4048 21.6552V21.6104ZM68.4304 28.203C64.978 28.203 62.1658 25.4449 62.1658 22.0589C62.1658 18.6728 64.978 15.9147 68.4304 15.9147C71.8827 15.9147 74.6949 18.6728 74.6949 22.0589C74.6949 25.4449 71.8827 28.203 68.4304 28.203Z" fill="#343CED"/>
<path d="M49.1255 26.4091C48.5626 26.9473 47.9095 27.3958 47.1664 27.7097C46.4458 28.0236 45.6351 28.1806 44.7794 28.1806C44.329 28.1806 43.9011 28.1358 43.4958 28.0461C43.0905 27.9564 42.6851 27.8218 42.3023 27.6649C41.9195 27.4855 41.5592 27.2837 41.2214 27.0594C40.8836 26.8127 40.5683 26.5437 40.2981 26.2521L50.9496 22.1486L55.4759 20.3995C55.2282 18.8298 54.6652 17.3498 53.8095 16.0716C51.8729 13.1565 48.54 11.2505 44.7794 11.2505C38.8118 11.2505 33.9478 16.0941 33.9478 22.0364C33.9478 22.597 33.9928 23.1352 34.0829 23.6734C34.3306 25.2431 34.8936 26.7231 35.7493 28.0012C36.2447 28.7188 36.8077 29.3915 37.4607 29.9745C38.1138 30.5576 38.8118 31.0733 39.6 31.4994C40.3657 31.9254 41.1989 32.2618 42.0771 32.486C42.9553 32.7103 43.8561 32.8224 44.8019 32.8224C46.2881 32.8224 47.7294 32.5309 49.0129 31.9703C50.319 31.4321 51.4675 30.6248 52.4583 29.6606C53.4492 28.6739 54.2373 27.5303 54.7778 26.2297C55.003 25.6916 55.1831 25.1085 55.3183 24.5255H50.4091C50.1164 25.2431 49.6885 25.8709 49.1255 26.4091ZM44.8019 15.8698C46.5584 15.8698 48.1572 16.6323 49.2832 17.7983L38.6317 21.9019C38.6993 18.5831 41.4466 15.8698 44.8019 15.8698Z" fill="#343CED"/>
<path d="M95.2661 32.6588H99.9774L99.9999 20.0322C99.9999 14.6111 96.5059 11.0874 91.1184 11.0874C85.821 11.0874 82.1241 14.7692 82.1241 20.0322L82.1016 32.6362H86.8128L86.8354 19.8967C86.8354 17.4572 88.6387 15.6727 91.1184 15.6727C94.973 15.6727 95.2886 18.9028 95.2886 19.8967L95.2661 32.6588Z" fill="#343CED"/>
<path d="M22.1399 11.1553L18.4655 8.28662L15.49 12.2395C10.9816 10.0936 5.43626 11.2908 2.28038 15.3792C-1.39396 20.1226 -0.537369 26.9442 4.19645 30.626C5.99981 32.0264 8.09622 32.7718 10.2152 32.8848C13.6641 33.088 17.1581 31.6424 19.4123 28.706C22.5907 24.6176 22.3653 18.9255 19.1869 15.0856L22.1399 11.1553ZM15.7154 25.8374C13.619 28.5253 9.74178 29.0222 7.03674 26.9216C4.35425 24.8209 3.85832 20.9132 5.95473 18.2253C6.96912 16.9152 8.43435 16.0794 10.0574 15.8761C10.4406 15.831 10.8238 15.8084 11.207 15.831C12.4468 15.8987 13.6415 16.3505 14.6334 17.1185C17.3159 19.2417 17.8118 23.1494 15.7154 25.8374Z" fill="#343CED"/>
<path d="M22.3655 30.671C21.7569 31.4615 21.0806 32.1618 20.3367 32.8168C19.6154 33.4267 18.8264 33.9914 17.9923 34.4657C17.1808 34.9175 16.3017 35.3015 15.4226 35.5951C14.5434 35.8888 13.6192 36.0921 12.695 36.205C11.7708 36.3179 10.8465 36.3631 9.89977 36.2953C8.953 36.2276 8.02878 36.0695 7.1271 35.8436L6.92422 36.589L6 40.3611C7.17218 40.6774 8.36691 40.8581 9.58418 40.9484C9.62926 40.9484 9.69689 40.9484 9.74197 40.9484C10.9142 41.0162 12.1089 40.971 13.2585 40.8355C14.4758 40.6774 15.6931 40.4063 16.8652 40.0223C18.0374 39.6383 19.1871 39.1414 20.2691 38.5315C21.3736 37.9217 22.4106 37.1763 23.3799 36.3631C24.3717 35.5274 25.2734 34.5787 26.0624 33.5396C26.1751 33.4041 26.2652 33.246 26.378 33.0879L22.636 30.3096C22.5233 30.4225 22.4557 30.558 22.3655 30.671Z" fill="#343CED"/>
<path d="M29.9394 24.0305L29.9168 0.268066H25.2056L25.2281 23.9175C25.2281 28.9094 28.5643 32.4557 33.4334 32.8171V28.164C31.3821 27.8252 29.9394 26.1989 29.9394 24.0305Z" fill="#343CED"/>
</svg>
