<svg viewBox="0 0 151 36" fill="none" xmlns="http://www.w3.org/2000/svg"><path d="M24.0655 1.39844L14.5703 10.9021H24.0655V1.3984  4Z" class="stroke-super dark:stroke-superDark group-hover:stroke-superDuper transition-colors duration-300 stroke-[1.3px] transition-all duration-300" stroke-miterlimit="10"></path><path d="M14.57 10.9021L5.07422 1.39844V10.9021H14.57Z" class="stroke-super dark:stroke-superDark group-hover:stroke-superDuper transition-colors duration-300 stroke-[1.3px] transition-all duration-300" stroke-miterlimit="10"></path><path d="M14.5488 0L14.5488 36" class="stroke-super dark:stroke-superDark group-hover:stroke-superDuper transition-colors duration-300 stroke-[1.3px] transition-all duration-300" stroke-miterlimit="10"></path><path d="M24.0655 20.4041L14.5703 10.9004V24.5252L24.0655 34.0288V20.4041Z" class="stroke-super dark:stroke-superDark group-hover:stroke-superDuper transition-colors duration-300 stroke-[1.3px] transition-all duration-300" stroke-miterlimit="10"></path><path d="M5.07422 20.4041L14.57 10.9004V24.5252L5.07422 34.0288V20.4041Z" class="stroke-super dark:stroke-superDark group-hover:stroke-superDuper transition-colors duration-300 stroke-[1.3px] transition-all duration-300" stroke-miterlimit="10"></path><path d="M1 10.9004V24.4705H5.07437V20.4041L14.5701 10.9004H1Z" class="stroke-super dark:stroke-superDark group-hover:stroke-superDuper transition-colors duration-300 stroke-[1.3px] transition-all duration-300" stroke-miterlimit="10"></path><path d="M14.5703 10.9004L24.0655 20.4041V24.4705H28.1405V10.9004H14.5703Z" class="stroke-super dark:stroke-superDark group-hover:stroke-superDuper transition-colors duration-300 stroke-[1.3px] transition-all duration-300" stroke-miterlimit="10"></path><path d="M55.9605 13.0284C56.5531 11.9196 57.3829 11.0651 58.4511 10.4648C59.5182 9.86569 60.7706 9.56555 62.206 9.56555C63.6414 9.56555 64.8312 9.86098 65.8263 10.4518C66.8226 11.0427 67.5674 11.8254 68.0608 12.8012C68.5542 13.7769 68.8009 14.8457 68.8009 16.0086V17.6187H57.6296C57.7193 19.0147 58.1903 20.1246 59.0425 20.9474C59.8948 21.7713 61.0386 22.1821 62.4752 22.1821C63.6414 22.1821 64.535 21.9455 65.1535 21.4711C65.7732 20.9968 66.2253 20.34 66.5133 19.4985H69.0713C68.7301 20.8049 68.0349 21.9372 66.9855 22.8942C65.9361 23.8523 64.4323 24.3301 62.4763 24.3301C61.0044 24.3301 59.7071 24.03 58.5857 23.4309C57.4643 22.8318 56.5979 21.9773 55.9876 20.8673C55.3774 19.7574 55.0728 18.4509 55.0728 16.9478C55.0728 15.4448 55.3691 14.1383 55.9617 13.0284H55.9605ZM66.1096 15.6049C66.1096 14.3878 65.7956 13.4356 65.1677 12.7459C64.5397 12.0573 63.5529 11.7124 62.206 11.7124C60.9501 11.7124 59.9219 12.0479 59.124 12.7188C58.3248 13.3897 57.8362 14.3525 57.6567 15.6049H66.1096Z" class=" block fill-textMain dark:fill-textMainDark group-hover:fill-superDuper transition-colors duration-300"></path><path d="M72.1566 9.96796V12.1961C72.1566 12.322 72.2192 12.3844 72.3455 12.3844C72.4175 12.3844 72.4706 12.3667 72.5072 12.3302C72.5438 12.2938 72.5792 12.2231 72.6146 12.116C73.0809 10.6495 74.2388 9.91499 76.0873 9.91499H77.2713V12.3302H75.7368C74.5339 12.3302 73.6368 12.6163 73.0443 13.1895C72.4517 13.7627 72.1554 14.7019 72.1554 16.0084V23.9275H69.732V9.96796H72.1566Z" class=" block fill-textMain dark:fill-textMainDark group-hover:fill-superDuper transition-colors duration-300"></path><path d="M91.4988 20.9874C90.8614 22.1055 90.0363 22.9424 89.0223 23.4968C88.0084 24.0511 86.9177 24.3289 85.7514 24.3289C83.4544 24.3289 81.8384 23.4167 80.9059 21.5912C80.8338 21.4487 80.7441 21.3769 80.6367 21.3769C80.5293 21.3769 80.475 21.4311 80.475 21.5382V29.0276H78.0516V9.96805H80.475V12.3574C80.475 12.4645 80.5293 12.5187 80.6367 12.5187C80.7441 12.5187 80.8338 12.4469 80.9059 12.3044C81.8384 10.4789 83.4544 9.56669 85.7514 9.56669C86.9177 9.56669 88.0084 9.84447 89.0223 10.3988C90.0363 10.9532 90.8614 11.7901 91.4988 12.9083C92.1362 14.0264 92.455 15.3741 92.455 16.9478C92.455 18.5215 92.1362 19.8692 91.4988 20.9874ZM88.6989 13.0954C87.8101 12.1738 86.6391 11.7124 85.186 11.7124C83.7329 11.7124 82.5608 12.1738 81.6731 13.0954C80.7843 14.017 80.4585 15.3012 80.4585 16.9478C80.4585 18.5945 80.7843 19.8786 81.6731 20.8002C82.562 21.7218 83.7329 22.1832 85.186 22.1832C86.6391 22.1832 87.8112 21.723 88.6989 20.8002C89.5877 19.8786 90.0316 18.5945 90.0316 16.9478C90.0316 15.3012 89.5877 14.0182 88.6989 13.0954Z" class=" block fill-textMain dark:fill-textMainDark group-hover:fill-superDuper transition-colors duration-300"></path><path d="M95.9712 4.59961V23.9263H93.5478V4.59961H95.9712Z" class=" block fill-textMain dark:fill-textMainDark group-hover:fill-superDuper transition-colors duration-300"></path><path d="M97.966 13.0284C98.5585 11.9196 99.3883 11.0651 100.457 10.4648C101.524 9.86569 102.776 9.56555 104.211 9.56555C105.647 9.56555 106.837 9.86098 107.832 10.4518C108.828 11.0427 109.573 11.8254 110.066 12.8012C110.56 13.7769 110.806 14.8457 110.806 16.0086V17.6187H99.6351C99.7248 19.0147 100.196 20.1246 101.048 20.9474C101.9 21.7713 103.044 22.1821 104.481 22.1821C105.647 22.1821 106.54 21.9455 107.159 21.4711C107.779 20.9968 108.231 20.34 108.519 19.4985H111.077C110.736 20.8049 110.04 21.9372 108.991 22.8942C107.942 23.8523 106.438 24.3301 104.482 24.3301C103.01 24.3301 101.713 24.03 100.591 23.4309C99.4698 22.8318 98.6034 21.9773 97.9931 20.8673C97.3828 19.7574 97.0783 18.4509 97.0783 16.9478C97.0783 15.4448 97.3746 14.1383 97.9671 13.0284H97.966ZM108.115 15.6049C108.115 14.3878 107.801 13.4356 107.173 12.7459C106.545 12.0573 105.558 11.7124 104.211 11.7124C102.956 11.7124 101.927 12.0479 101.129 12.7188C100.33 13.3897 99.8416 14.3525 99.6622 15.6049H108.115Z" class=" block fill-textMain dark:fill-textMainDark group-hover:fill-superDuper transition-colors duration-300"></path><path d="M109.728 23.3894L115.273 16.5438L110.724 10.5045V9.96777H113.389L117.186 15.1749L121.278 9.96777H123.996V10.5316L118.774 16.9475L123.593 23.3894V23.9261H120.982L116.863 18.3164L112.449 23.9261H109.73V23.3894H109.728Z" class=" block fill-textMain dark:fill-textMainDark group-hover:fill-superDuper transition-colors duration-300"></path><path d="M127.514 5.4245V8.44591H124.684V5.4245H127.514ZM127.367 23.9273H124.943V9.96781H127.367V23.9273Z" class=" block fill-textMain dark:fill-textMainDark group-hover:fill-superDuper transition-colors duration-300"></path><path d="M128.131 9.96828H130.767V6.21005H133.191V9.96828H135.965L136.646 12.014H133.191V18.6924C133.191 19.6046 133.168 20.2802 133.123 20.7192C133.078 21.1582 133.056 21.4219 133.056 21.5114C133.056 21.6373 133.091 21.735 133.163 21.8068C133.235 21.8786 133.333 21.9139 133.46 21.9139C133.549 21.9139 133.814 21.8915 134.254 21.8468C134.693 21.8021 135.371 21.7797 136.287 21.7797H137.229V23.9266H135.345C133.801 23.9266 132.652 23.5511 131.899 22.799C131.146 22.0469 130.768 20.9028 130.768 19.3633V12.014H128.133V9.96828H128.131Z" class=" block fill-textMain dark:fill-textMainDark group-hover:fill-superDuper transition-colors duration-300"></path><path d="M136.695 9.96777H139.165L143.176 21.6792C143.231 21.8228 143.316 22.0123 143.591 22.0123C143.866 22.0123 143.951 21.8228 144.005 21.6792L148.016 9.96777H150.32V10.5045L145.302 25.5633C144.871 26.8522 144.266 27.7514 143.486 28.2611C142.705 28.7707 141.798 29.0261 140.289 29.0261H137.705V26.8793H139.671C140.299 26.8793 140.81 26.9016 141.205 26.9463C141.599 26.9911 141.851 27.0134 141.959 27.0134C142.264 27.0134 142.47 26.8793 142.579 26.6109L143.333 24.5711C143.423 24.3569 143.431 24.1956 143.36 24.0874C143.324 24.0156 143.28 23.9708 143.226 23.9532C143.172 23.9355 143.091 23.9261 142.984 23.9261H141.342L136.697 9.96777H136.695Z" class=" block fill-textMain dark:fill-textMainDark group-hover:fill-superDuper transition-colors duration-300"></path><path d="M53.5331 21.0098C52.8957 22.128 52.0706 22.9648 51.0566 23.5192C50.0427 24.0736 48.952 24.3514 47.7857 24.3514C45.4887 24.3514 43.8727 23.4392 42.9402 21.6136C42.8682 21.4712 42.7784 21.3994 42.671 21.3994C42.5636 21.3994 42.5093 21.4535 42.5093 21.5607V29.0501H40.0859V9.99051H42.5093V12.3799C42.5093 12.487 42.5636 12.5411 42.671 12.5411C42.7784 12.5411 42.8682 12.4693 42.9402 12.3269C43.8727 10.5013 45.4887 9.58915 47.7857 9.58915C48.952 9.58915 50.0427 9.86693 51.0566 10.4213C52.0706 10.9757 52.8957 11.8125 53.5331 12.9307C54.1705 14.0489 54.4893 15.3966 54.4893 16.9703C54.4893 18.5439 54.1705 19.8916 53.5331 21.0098ZM50.7332 13.1179C49.8444 12.1963 48.6734 11.7349 47.2203 11.7349C45.7672 11.7349 44.5951 12.1963 43.7074 13.1179C42.8186 14.0395 42.4928 15.3236 42.4928 16.9703C42.4928 18.6169 42.8186 19.9011 43.7074 20.8227C44.5963 21.7443 45.7672 22.2057 47.2203 22.2057C48.6734 22.2057 49.8455 21.7455 50.7332 20.8227C51.622 19.9011 52.0659 18.6169 52.0659 16.9703C52.0659 15.3236 51.622 14.0407 50.7332 13.1179Z" class=" block fill-textMain dark:fill-textMainDark group-hover:fill-superDuper transition-colors duration-300"></path></svg>