<svg width="151" height="46" viewBox="0 0 151 46" fill="none" xmlns="http://www.w3.org/2000/svg">
<path fill-rule="evenodd" clip-rule="evenodd" d="M19.1308 1.69344C18.9873 0.846308 20.18 0.5039 20.5077 1.29812L21.1468 2.84675C21.1668 2.89518 21.182 2.94422 21.1928 2.99343C22.7254 2.62392 24.2692 2.43784 25.798 2.42342C25.7964 2.37277 25.7992 2.32118 25.8069 2.26902L26.0507 0.615688C26.176 -0.234313 27.4162 -0.191406 27.4824 0.665223L27.6114 2.33146C27.6155 2.38421 27.6148 2.43605 27.6097 2.48664C29.1644 2.60997 30.6922 2.9097 32.1646 3.37307C32.1787 3.32443 32.1974 3.27628 32.2208 3.22908L32.965 1.72908C33.3469 0.959415 34.513 1.38344 34.3114 2.21862L33.9183 3.84635C33.906 3.89754 33.8894 3.9464 33.869 3.99274C35.2997 4.585 36.6631 5.33727 37.9304 6.23662C37.9582 6.19626 37.9899 6.15765 38.0255 6.12125L39.1969 4.92462C39.7979 4.31062 40.7759 5.07425 40.326 5.80624L39.4493 7.23279C39.4232 7.2753 39.394 7.31465 39.3624 7.35079C40.6501 8.44718 41.8117 9.71041 42.8105 11.124C42.808 10.988 42.8072 10.8529 42.8065 10.7201L42.8065 10.7196V10.7194L42.8063 10.6959C42.8034 10.018 43.4164 9.49694 44.1109 9.39982C44.4429 9.35578 44.7802 9.42311 45.0698 9.59129C45.3594 9.75947 45.5851 10.019 45.7114 10.3292C46.1067 11.3349 46.1735 12.44 45.9021 13.486C45.8799 13.5802 45.8538 13.6744 45.8243 13.7812L45.8242 13.7815C45.813 13.8222 45.8012 13.8647 45.7889 13.9097C46.8043 14.482 47.6004 15.3757 48.0519 16.4502C48.4148 17.3155 48.0706 18.1992 47.271 18.5501C46.8592 18.727 46.4558 18.6805 46.0866 18.4872C46.4131 19.925 46.579 21.3714 46.594 22.8046C46.6368 22.8044 46.6803 22.8075 46.7242 22.8139L48.3773 23.0577C49.2273 23.183 49.1844 24.4231 48.3278 24.4894L46.6617 24.6183C46.618 24.6217 46.5748 24.6218 46.5324 24.6189C46.4104 26.1758 46.1114 27.7058 45.6484 29.1804C45.6874 29.1932 45.7261 29.209 45.7641 29.2279L47.264 29.972C48.0336 30.3538 47.6096 31.52 46.7744 31.3183L45.1469 30.9253C45.106 30.9155 45.0665 30.9029 45.0286 30.8878C44.4362 32.321 43.6831 33.6868 42.7825 34.9561C42.8136 34.9793 42.8434 35.0048 42.872 35.0327L44.0684 36.2038C44.6824 36.8048 43.9188 37.7829 43.1868 37.333L41.7605 36.4564C41.7274 36.436 41.6962 36.4139 41.667 36.3901C40.6689 37.5624 39.5325 38.6302 38.2703 39.5658C38.2916 39.5963 38.3113 39.6286 38.3291 39.6626L39.1035 41.1432C39.5018 41.9045 38.4733 42.5987 37.9161 41.9447L36.8326 40.6727C36.8076 40.6433 36.7849 40.6128 36.7646 40.5814C35.6981 41.2339 34.5567 41.7981 33.3466 42.2605C33.0818 42.3617 32.8163 42.457 32.5501 42.5466C32.5607 42.5817 32.5693 42.6179 32.5756 42.6551L32.8553 44.3066C32.9988 45.1537 31.8061 45.4961 31.4783 44.7019L30.8393 43.1534C30.8253 43.1193 30.8135 43.0849 30.8041 43.0503C29.268 43.4212 27.7206 43.6078 26.1883 43.6219C26.1875 43.658 26.1845 43.6945 26.1791 43.7313L25.9354 45.3843C25.81 46.2343 24.5699 46.1914 24.5036 45.3348L24.3747 43.6689C24.3718 43.6315 24.3713 43.5945 24.3731 43.5581C22.815 43.4339 21.284 43.1325 19.8088 42.6669C19.7967 42.702 19.7821 42.7369 19.7651 42.7712L19.0211 44.2709C18.6392 45.0406 17.473 44.6166 17.6747 43.7814L18.0677 42.154C18.0768 42.1162 18.0882 42.0797 18.1018 42.0445C16.6691 41.4496 15.304 40.6943 14.0355 39.7913C14.0128 39.8217 13.9877 39.851 13.9603 39.879L12.7892 41.0754C12.1882 41.6894 11.2101 40.9257 11.66 40.1938L12.5366 38.7675C12.5571 38.7342 12.5794 38.7029 12.6033 38.6735C11.4329 37.6738 10.3672 36.5361 9.43375 35.2727C9.40133 35.2958 9.36689 35.317 9.33045 35.3361L7.84985 36.1105C7.08852 36.5087 6.39431 35.4802 7.04838 34.9231L8.32036 33.8396C8.35254 33.8122 8.38607 33.7876 8.42068 33.7658C7.88895 32.8937 7.41617 31.9717 7.00971 31.0032C6.94707 31.2025 6.85007 31.394 6.71831 31.5687L5.92977 32.6141C4.66879 34.2857 2.18099 34.4403 1.29477 32.5432C0.49811 30.8378 0.129525 29.0356 0.00812912 27.4225C-0.149548 25.3273 2.01592 24.1444 3.95185 24.9612L5.06844 25.4322C5.25862 25.5125 5.42954 25.6212 5.57772 25.7517C5.46286 24.8979 5.40293 24.0443 5.39592 23.1954C5.35182 23.1958 5.30705 23.1927 5.26187 23.1861L3.60873 22.9423C2.75873 22.817 2.80164 21.5769 3.65827 21.5106L5.3243 21.3817C5.37079 21.3781 5.41659 21.3782 5.46143 21.3817C5.58682 19.8262 5.88879 18.2977 6.35456 16.825C6.30981 16.8113 6.2655 16.7937 6.222 16.7722L4.72212 16.028C3.95245 15.6461 4.37647 14.48 5.21166 14.6817L6.83926 15.0747C6.8873 15.0863 6.93331 15.1016 6.9771 15.1203C7.57159 13.6902 8.32607 12.3275 9.22763 11.0612C9.18799 11.0337 9.15005 11.0025 9.11424 10.9675L7.91766 9.79617C7.30366 9.19516 8.06729 8.21711 8.79928 8.66699L10.2258 9.54372C10.2684 9.56992 10.3078 9.59912 10.3441 9.63087C11.3421 8.46231 12.4778 7.39804 13.7388 6.46564C13.7085 6.42619 13.6811 6.38349 13.6571 6.33764L12.8825 4.85681C12.4843 4.09548 13.5128 3.40127 14.0699 4.05533L15.1536 5.32752C15.1877 5.36757 15.2175 5.40971 15.2429 5.45342C16.3045 4.80538 17.4401 4.24475 18.6437 3.7848C18.9117 3.68241 19.1804 3.58599 19.4499 3.49547C19.4326 3.44764 19.4194 3.39753 19.4105 3.34539L19.1308 1.69344ZM9.42764 29.3534C12.9242 38.5035 23.1763 43.0867 32.3264 39.5902C41.3903 36.1265 45.9728 26.0337 42.6594 16.9498C41.5604 17.8729 40.2417 18.7093 38.7083 19.2713C35.2674 20.5324 32.6402 21.0818 30.423 21.2991C27.9019 24.7665 23.6152 26.213 21.5412 26.5108L21.8055 21.3187C20.4551 21.375 19.0041 21.5528 17.3074 21.9887C14.1205 22.8074 11.152 24.1427 8.45768 25.6932C8.64581 26.9204 8.96644 28.1465 9.42764 29.3534ZM13.9477 29.8003C13.098 29.9515 12.2866 29.3852 12.1354 28.5355C11.9842 27.6858 12.5504 26.8744 13.4001 26.7232C14.2498 26.572 15.0612 27.1383 15.2124 27.988C15.3636 28.8377 14.7974 29.6491 13.9477 29.8003ZM21.1518 29.9899C20.5972 30.0886 20.0676 29.719 19.969 29.1645C19.8703 28.6099 20.2398 28.0803 20.7944 27.9816C21.349 27.883 21.8785 28.2525 21.9772 28.8071C22.0759 29.3617 21.7063 29.8912 21.1518 29.9899ZM30.3 29.6319C29.7454 29.7306 29.2158 29.361 29.1171 28.8064C29.0184 28.2519 29.388 27.7223 29.9426 27.6236C30.4971 27.5249 31.0267 27.8945 31.1254 28.4491C31.2241 29.0036 30.8545 29.5332 30.3 29.6319ZM32.2049 34.5175C32.3036 35.0721 32.8332 35.4417 33.3877 35.343C33.9423 35.2443 34.3119 34.7147 34.2132 34.1602C34.1145 33.6056 33.5849 33.236 33.0303 33.3347C32.4758 33.4334 32.1062 33.963 32.2049 34.5175ZM21.5141 37.0074C20.9595 37.106 20.43 36.7365 20.3313 36.1819C20.2326 35.6273 20.6022 35.0977 21.1567 34.9991C21.7113 34.9004 22.2409 35.2699 22.3396 35.8245C22.4382 36.3791 22.0687 36.9087 21.5141 37.0074ZM16.0099 32.6964C16.1086 33.251 16.6382 33.6205 17.1928 33.5219C17.7473 33.4232 18.1169 32.8936 18.0182 32.339C17.9195 31.7845 17.3899 31.4149 16.8354 31.5136C16.2808 31.6123 15.9113 32.1418 16.0099 32.6964ZM25.9682 33.025C25.4136 33.1237 24.884 32.7541 24.7853 32.1995C24.6867 31.645 25.0562 31.1154 25.6108 31.0167C26.1653 30.918 26.6949 31.2876 26.7936 31.8422C26.8923 32.3967 26.5227 32.9263 25.9682 33.025ZM34.6743 28.853C34.8256 29.7027 35.6369 30.269 36.4866 30.1178C37.3363 29.9666 37.9026 29.1552 37.7514 28.3055C37.6002 27.4558 36.7888 26.8895 35.9391 27.0407C35.0894 27.1919 34.5231 28.0033 34.6743 28.853ZM25.9272 36.7735C26.0784 37.6232 26.8898 38.1895 27.7395 38.0383C28.5892 37.8871 29.1554 37.0757 29.0042 36.226C28.853 35.3763 28.0416 34.81 27.1919 34.9612C26.3422 35.1124 25.776 35.9238 25.9272 36.7735ZM37.8758 12.7965C38.1885 14.1706 37.3775 15.5268 36.0642 15.8257C34.751 16.1246 33.4329 15.253 33.1202 13.8789C32.8074 12.5048 33.6184 11.1485 34.9317 10.8496C36.2449 10.5507 37.563 11.4224 37.8758 12.7965Z" fill="white"/>
<path d="M36.1637 14.6311C36.7552 14.4965 37.1087 13.8341 36.9534 13.1516C36.798 12.4691 36.1926 12.025 35.6012 12.1596C35.0097 12.2942 34.6562 12.9566 34.8115 13.6391C34.9669 14.3216 35.5723 14.7657 36.1637 14.6311Z" fill="white"/>
<path fill-rule="evenodd" fill="" clip-rule="evenodd" d="M110.176 13.7848C110.176 8.71303 114.288 4.60157 119.362 4.60156V9.08722C116.766 9.08722 114.663 11.1904 114.663 13.7848V13.785H119.362V18.2706H114.663V32.1513H110.176V13.7848ZM108.159 4.73482H108.158C103.085 4.73482 98.9727 8.84613 98.9726 13.9177H98.9724V32.2843H103.459V13.918H103.46C103.46 11.3236 105.563 9.22047 108.158 9.22047H108.159V4.73482ZM67.3793 27.7985C69.9745 27.7985 72.0782 25.6953 72.0782 23.1009C72.0782 20.5065 69.9745 18.4034 67.3793 18.4034C64.7841 18.4034 62.6803 20.5065 62.6803 23.1009C62.6803 25.6953 64.7841 27.7985 67.3793 27.7985ZM67.3793 32.2841C65.6622 32.2841 64.0551 31.8132 62.6803 30.9934V41.4016H58.1934V23.1009C58.1934 18.0292 62.306 13.9177 67.3793 13.9177C72.4525 13.9177 76.5652 18.0292 76.5652 23.1009C76.5652 28.1727 72.4525 32.2841 67.3793 32.2841ZM96.9544 13.9177H92.4674V23.1008C92.4673 25.6951 90.3637 27.7982 87.7686 27.7982C85.1735 27.7982 83.0697 25.6951 83.0696 23.1008V23.1006V23.1005V13.9177H78.5826V23.1005V23.1006V23.1008C78.5827 28.1725 82.6954 32.2839 87.7686 32.2839C92.8418 32.2839 96.9545 28.1724 96.9545 23.1006V23.1005L96.9544 13.9177ZM103.46 13.918L103.46 18.4036H108.159V13.9179L103.46 13.918ZM137.71 17.1958C138.552 18.2376 139.15 19.4434 139.473 20.7251L139.751 22.8874C139.751 22.9141 139.751 22.9409 139.751 22.9677L139.751 22.968C139.751 23.7416 139.656 24.4929 139.475 25.2107H137.651V25.211H126.435C127.232 26.6735 128.783 27.6661 130.565 27.6661C131.761 27.6661 132.853 27.2194 133.683 26.4838L136.658 29.8404C135.086 31.2339 133.083 32.0462 130.983 32.1417C128.884 32.2373 126.815 31.6104 125.123 30.3655C123.43 29.1207 122.215 27.3332 121.681 25.3013C121.147 23.2694 121.326 21.1159 122.188 19.2C123.051 17.2841 124.544 15.7218 126.419 14.7735C128.294 13.8252 130.438 13.5484 132.493 13.9892C134.548 14.43 136.389 15.5618 137.71 17.1958ZM126.435 20.7254C127.232 19.2629 128.783 18.2704 130.565 18.2704C132.348 18.2704 133.899 19.2629 134.695 20.7254H126.435ZM146.256 23.1003C146.256 20.5109 148.351 18.4109 150.939 18.4027V13.9171C145.873 13.9252 141.769 18.0336 141.769 23.1003V23.1004L146.256 23.1004V23.1003ZM141.769 32.2838H146.256V23.1007L141.769 23.1007V32.2838Z" fill="white"/>
</svg>
