<svg class="CommonHeader2_logo__smd0s" width="100" height="32" viewBox="0 0 100 32" fill="none" xmlns="http://www.w3.org/2000/svg"><path d="M25.9422 23.0094L13.8273 30.0185L1.71237 23.0094V8.9906L13.8273 1.98147L25.9422 8.9906V23.0094ZM13.8273 0L0 8.00014V23.9999L13.8273 32L27.6546 23.9999V8.00014L13.8273 0Z" fill="#921F1F"></path><path d="M17.101 22.362L10.5533 18.574H8.84097V25.1375L10.5534 26.1285V20.5554L17.101 24.3435V26.1285L18.8133 25.1378V18.574H17.101V22.362Z" fill="#921F1F"></path><path d="M5.14983 18.574H3.43746V22.0112L7.1161 24.1395V22.1581L5.14983 21.0205V18.574Z" fill="#921F1F"></path><path d="M22.5048 13.426H24.2172V9.98882L20.5386 7.86047V9.84194L22.5048 10.9796V13.426Z" fill="#921F1F"></path><path d="M10.5535 7.85299L13.8273 5.95909L17.1011 7.85299V8.91023H10.5535V7.85299ZM8.84117 13.426H10.5535V10.6284L15.3887 13.426H18.8135L13.9742 10.6262H18.8135V6.86253L13.8273 3.97763L8.84117 6.86226V13.426Z" fill="#921F1F"></path><path d="M5.14983 15.142V10.9796L7.1161 9.84194V7.86048L3.43746 9.98882V16.858H22.5048V21.0205L20.5385 22.1581V24.1395L24.2172 22.0112V15.142H5.14983Z" fill="#921F1F"></path><path d="M98.4556 15.9463C97.5157 15.0318 96.1424 14.4311 94.3351 14.1436L90.4425 13.4981C89.6549 13.3728 89.087 13.1802 88.7376 12.9201C88.3888 12.66 88.2143 12.2967 88.2143 11.8302C88.2143 11.3285 88.487 10.9294 89.0335 10.6335C89.5787 10.3377 90.3169 10.1897 91.2479 10.1897C92.2319 10.1897 93.1939 10.3693 94.1339 10.7272C95.0732 11.0863 96.0352 11.6512 97.0192 12.4226L99.4623 9.00618C98.4419 8.18117 97.2204 7.52618 95.7977 7.04238C94.375 6.558 92.9659 6.3158 91.57 6.3158C89.1716 6.3158 87.2887 6.84075 85.9195 7.88947C84.5504 8.93878 83.8658 10.3693 83.8658 12.1798C83.8658 13.5614 84.2771 14.7002 85.1004 15.5967C85.9237 16.4933 87.0958 17.0762 88.6174 17.3452L92.751 18.0712C93.6814 18.2329 94.3482 18.4571 94.7512 18.7441C95.1536 19.031 95.3548 19.4343 95.3548 19.9545C95.3548 20.5283 95.0554 20.9763 94.4559 21.2997C93.8559 21.6224 93.0284 21.7834 91.973 21.7834C90.8991 21.7834 89.8692 21.5776 88.8858 21.1648C87.9012 20.7526 86.8452 20.0887 85.7177 19.1742L83.1407 22.5369C84.3039 23.5235 85.6332 24.2949 87.1274 24.8503C88.6215 25.4062 90.1204 25.6842 91.6235 25.6842C94.1648 25.6842 96.1739 25.1282 97.6502 24.0163C99.1265 22.9043 99.8647 21.3981 99.8647 19.4969C99.8647 18.0443 99.395 16.8608 98.4556 15.9463Z" fill="#921F1F"></path><path d="M56.6928 15.7578C57.3369 14.8254 57.659 13.7672 57.659 12.5836C57.659 11.7049 57.4934 10.8984 57.1625 10.1623C56.8312 9.42735 56.3748 8.79562 55.7934 8.26589C55.2116 7.73736 54.5138 7.32455 53.6996 7.02867C52.8851 6.73278 51.9951 6.58485 51.0285 6.58485H40.3362V25.4152H44.9534V10.5393H50.5991C51.3149 10.5393 51.8918 10.7368 52.3306 11.1311C52.769 11.526 52.9884 12.0366 52.9884 12.6642C52.9884 13.2923 52.769 13.8036 52.3306 14.1979C51.8918 14.5922 51.3149 14.7896 50.5991 14.7896H47.6068L53.0956 25.4152H58.2497L54.1426 17.8833C55.1983 17.3989 56.0484 16.6908 56.6928 15.7578Z" fill="#921F1F"></path><path d="M76.5141 20.0386L67.5842 15.762V20.5922L77.6559 25.4152H80.8627V6.58485H76.5141V20.0386Z" fill="#921F1F"></path><path d="M74.0209 11.4079L63.9492 6.58485H60.7425V25.4152H65.0912V11.9614L74.0209 16.238V11.4079Z" fill="#921F1F"></path></svg>