<svg width="258" height="32" viewBox="0 0 258 32" fill="none" xmlns="http://www.w3.org/2000/svg">
<path d="M26.7417 9.4182L14.7332 2.48486L8.6665 12.8849L26.7417 9.4182Z" fill="#35BDF6"/>
<path d="M14.7332 2.48486L2.72461 9.4182L8.66645 12.8849L14.7332 2.48486Z" fill="#00EDED"/>
<path d="M2.72461 9.41797V23.2846L8.66646 12.8846L2.72461 9.41797Z" fill="#00D3D3"/>
<path d="M26.7418 23.2846L14.7333 30.218L12.3066 23.2846L26.7418 9.41797V23.2846Z" fill="#3196E0"/>
<path d="M8.66652 12.8848L2.72119 23.2848L14.7297 30.2181L8.66652 12.8848Z" fill="#5548FF"/>
<g clip-path="url(#clip0_1535_3599)">
<path fill-rule="evenodd" clip-rule="evenodd" d="M36.0669 25.0838V7.60498H40.6604C42.9931 7.60498 45.2424 8.14878 46.9221 9.61694C48.6357 11.1148 49.5335 13.3773 49.5335 16.331C49.5335 19.28 48.6473 21.5483 46.9396 23.0544C45.2636 24.5324 43.012 25.0838 40.6604 25.0838H36.0669ZM38.8344 10.3725V22.3163H40.6604C42.6267 22.3163 44.1198 21.8512 45.1091 20.9788C46.0665 20.1344 46.766 18.7182 46.766 16.331C46.766 13.9485 46.0609 12.5399 45.1008 11.7006C44.1066 10.8317 42.6112 10.3725 40.6604 10.3725H38.8344ZM78.3073 25.0837V7.61953H84.2815C86.1903 7.61953 87.7335 8.20819 88.7933 9.3195C89.8387 10.4158 90.2557 11.8554 90.2557 13.2628C90.2557 14.6701 89.8387 16.1097 88.7933 17.206C87.7335 18.3173 86.1903 18.906 84.2815 18.906H81.0748V25.0837H78.3073ZM81.0748 10.387V16.1385H84.2815C85.613 16.1385 86.3651 15.7422 86.7905 15.2961C87.2302 14.8351 87.4883 14.1449 87.4883 13.2628C87.4883 12.3806 87.2302 11.6905 86.7905 11.2294C86.3651 10.7833 85.613 10.387 84.2815 10.387H81.0748ZM52.0891 7.61953H62.5939V10.387H54.8566V14.9752H62.1526V17.7427H54.8566V22.3308H62.5939V25.0983H52.0891V7.61953ZM65.1982 25.0983V7.61953H75.703V10.387H67.9657V14.9752H75.2617V17.7427H67.9657V22.3308H75.703V25.0983H65.1982ZM137.735 25.0838V7.60502L140.502 7.60498V25.0838H137.735ZM136.122 25.0838L129.871 7.60502H127.974L121.723 25.0838H124.662L126.14 20.9508H131.705L133.183 25.0838H136.122ZM128.923 13.1707L130.715 18.1833H127.13L128.923 13.1707ZM144.581 7.60502V25.0838H147.348V12.0758L155.471 25.0838H158.709V7.60498H155.942V20.6129L147.819 7.60502H144.581ZM116.88 18.3074L120.752 25.0838H117.565L113.972 18.7972H110.934V25.0799H108.167V7.61959H114.011C115.801 7.61959 117.365 8.06969 118.49 9.10336C119.632 10.1533 120.118 11.6165 120.118 13.2084C120.118 14.8002 119.632 16.2634 118.49 17.3134C118.023 17.7418 117.482 18.07 116.88 18.3074ZM110.934 10.3871V16.0297H114.011C115.369 16.0297 116.167 15.6888 116.617 15.2757C117.049 14.8788 117.35 14.2395 117.35 13.2084C117.35 12.1773 117.049 11.5379 116.617 11.1411C116.167 10.728 115.369 10.3871 114.011 10.3871H110.934ZM104.414 12.6593C104.414 13.9144 104.051 15.1169 103.268 16.0495C103.317 16.0842 103.365 16.1197 103.412 16.1561C104.568 17.0501 105.212 18.379 105.212 19.9713C105.212 21.5636 104.568 22.8924 103.412 23.7865C102.3 24.646 100.838 25.011 99.3082 25.011H92.8726V7.61959L99.4781 7.61959C100.94 7.61959 102.214 8.12792 103.115 9.09582C104.004 10.0502 104.414 11.3251 104.414 12.6593ZM95.6401 22.2435V17.699H99.3082C100.437 17.699 101.236 17.9722 101.719 18.3457C102.158 18.6847 102.445 19.1839 102.445 19.9713C102.445 20.7587 102.158 21.2578 101.719 21.5968C101.236 21.9704 100.437 22.2435 99.3082 22.2435H95.6401ZM95.6401 10.3871V14.9315H99.4781C100.279 14.9315 100.781 14.6683 101.09 14.3365C101.412 13.9911 101.647 13.438 101.647 12.6593C101.647 11.8806 101.412 11.3275 101.09 10.9821C100.781 10.6503 100.279 10.3871 99.4781 10.3871H95.6401ZM176.119 7.60498L182.654 25.0838H178.611L177.427 21.9172H171.73L170.546 25.0838H166.503L173.038 7.60498H176.119ZM176.011 18.1302L174.579 14.2987L173.146 18.1302H176.011ZM184.126 7.60498V25.0838H187.914V7.60498H184.126Z" fill="#12102D"/>
</g>
<defs>
<clipPath id="clip0_1535_3599">
<rect width="152.533" height="19.2" fill="white" transform="translate(36.0669 6.75146)"/>
</clipPath>
</defs>
</svg>
